<svg width="354" height="35" viewBox="0 0 354 35" fill="none" xmlns="http://www.w3.org/2000/svg">
<path d="M19.584 28C19.32 27.136 19.02 26.248 18.684 25.336C18.372 24.424 18.06 23.512 17.748 22.6H8.028C7.716 23.512 7.392 24.424 7.056 25.336C6.744 26.248 6.456 27.136 6.192 28H0.36C1.296 25.312 2.184 22.828 3.024 20.548C3.864 18.268 4.68 16.12 5.472 14.104C6.288 12.088 7.08 10.18 7.848 8.38C8.64 6.556 9.456 4.78 10.296 3.052H15.66C16.476 4.78 17.28 6.556 18.072 8.38C18.864 10.18 19.656 12.088 20.448 14.104C21.264 16.12 22.092 18.268 22.932 20.548C23.772 22.828 24.66 25.312 25.596 28H19.584ZM12.852 8.704C12.732 9.064 12.552 9.556 12.312 10.18C12.072 10.804 11.796 11.524 11.484 12.34C11.172 13.156 10.824 14.056 10.44 15.04C10.08 16.024 9.708 17.056 9.324 18.136H16.416C16.032 17.056 15.66 16.024 15.3 15.04C14.94 14.056 14.592 13.156 14.256 12.34C13.944 11.524 13.668 10.804 13.428 10.18C13.188 9.556 12.996 9.064 12.852 8.704ZM32.1106 18.388C32.1106 20.044 32.4826 21.376 33.2266 22.384C33.9706 23.392 35.0746 23.896 36.5386 23.896C37.0186 23.896 37.4626 23.884 37.8706 23.86C38.2786 23.812 38.6146 23.764 38.8786 23.716V13.96C38.5426 13.744 38.0986 13.564 37.5466 13.42C37.0186 13.276 36.4786 13.204 35.9266 13.204C33.3826 13.204 32.1106 14.932 32.1106 18.388ZM44.2426 27.388C43.7626 27.532 43.2106 27.676 42.5866 27.82C41.9626 27.94 41.3026 28.048 40.6066 28.144C39.9346 28.24 39.2386 28.312 38.5186 28.36C37.8226 28.432 37.1506 28.468 36.5026 28.468C34.9426 28.468 33.5506 28.24 32.3266 27.784C31.1026 27.328 30.0706 26.68 29.2306 25.84C28.3906 24.976 27.7426 23.944 27.2866 22.744C26.8546 21.52 26.6386 20.152 26.6386 18.64C26.6386 17.104 26.8306 15.724 27.2146 14.5C27.5986 13.252 28.1506 12.196 28.8706 11.332C29.5906 10.468 30.4666 9.808 31.4986 9.352C32.5546 8.896 33.7546 8.668 35.0986 8.668C35.8426 8.668 36.5026 8.74 37.0786 8.884C37.6786 9.028 38.2786 9.232 38.8786 9.496V0.927999L44.2426 0.0639992V27.388ZM47.8252 18.676C47.8252 16.996 48.0772 15.532 48.5812 14.284C49.1092 13.012 49.7932 11.956 50.6332 11.116C51.4732 10.276 52.4332 9.64 53.5132 9.208C54.6172 8.776 55.7452 8.56 56.8972 8.56C59.5852 8.56 61.7092 9.388 63.2692 11.044C64.8292 12.676 65.6092 15.088 65.6092 18.28C65.6092 18.592 65.5972 18.94 65.5732 19.324C65.5492 19.684 65.5252 20.008 65.5012 20.296H53.3332C53.4532 21.4 53.9692 22.276 54.8812 22.924C55.7932 23.572 57.0172 23.896 58.5532 23.896C59.5372 23.896 60.4972 23.812 61.4332 23.644C62.3932 23.452 63.1732 23.224 63.7732 22.96L64.4932 27.316C64.2052 27.46 63.8212 27.604 63.3412 27.748C62.8612 27.892 62.3212 28.012 61.7212 28.108C61.1452 28.228 60.5212 28.324 59.8492 28.396C59.1772 28.468 58.5052 28.504 57.8332 28.504C56.1292 28.504 54.6412 28.252 53.3692 27.748C52.1212 27.244 51.0772 26.56 50.2372 25.696C49.4212 24.808 48.8092 23.764 48.4012 22.564C48.0172 21.364 47.8252 20.068 47.8252 18.676ZM60.4252 16.624C60.4012 16.168 60.3172 15.724 60.1732 15.292C60.0532 14.86 59.8492 14.476 59.5612 14.14C59.2972 13.804 58.9492 13.528 58.5172 13.312C58.1092 13.096 57.5932 12.988 56.9692 12.988C56.3692 12.988 55.8532 13.096 55.4212 13.312C54.9892 13.504 54.6292 13.768 54.3412 14.104C54.0532 14.44 53.8252 14.836 53.6572 15.292C53.5132 15.724 53.4052 16.168 53.3332 16.624H60.4252ZM69.2086 9.712C70.1206 9.448 71.2966 9.208 72.7366 8.992C74.1766 8.752 75.6886 8.632 77.2726 8.632C78.8806 8.632 80.2126 8.848 81.2686 9.28C82.3486 9.688 83.2006 10.276 83.8246 11.044C84.4486 11.812 84.8926 12.724 85.1566 13.78C85.4206 14.836 85.5526 16.012 85.5526 17.308V28H80.1886V17.956C80.1886 16.228 79.9606 15.004 79.5046 14.284C79.0486 13.564 78.1966 13.204 76.9486 13.204C76.5646 13.204 76.1566 13.228 75.7246 13.276C75.2926 13.3 74.9086 13.336 74.5726 13.384V28H69.2086V9.712ZM95.2318 28H89.8678V9.064H95.2318V28ZM95.7358 3.592C95.7358 4.576 95.4118 5.356 94.7638 5.932C94.1398 6.484 93.3958 6.76 92.5318 6.76C91.6678 6.76 90.9118 6.484 90.2638 5.932C89.6398 5.356 89.3278 4.576 89.3278 3.592C89.3278 2.608 89.6398 1.84 90.2638 1.288C90.9118 0.711999 91.6678 0.423999 92.5318 0.423999C93.3958 0.423999 94.1398 0.711999 94.7638 1.288C95.4118 1.84 95.7358 2.608 95.7358 3.592ZM107.294 28.36C105.734 28.336 104.462 28.168 103.478 27.856C102.518 27.544 101.75 27.112 101.174 26.56C100.622 25.984 100.238 25.3 100.022 24.508C99.8301 23.692 99.7341 22.78 99.7341 21.772V0.927999L105.098 0.0639992V20.692C105.098 21.172 105.134 21.604 105.206 21.988C105.278 22.372 105.41 22.696 105.602 22.96C105.818 23.224 106.118 23.44 106.502 23.608C106.886 23.776 107.402 23.884 108.05 23.932L107.294 28.36ZM116.021 24.148C117.005 24.148 117.701 24.052 118.109 23.86C118.517 23.668 118.721 23.296 118.721 22.744C118.721 22.312 118.457 21.94 117.929 21.628C117.401 21.292 116.597 20.92 115.517 20.512C114.677 20.2 113.909 19.876 113.213 19.54C112.541 19.204 111.965 18.808 111.485 18.352C111.005 17.872 110.633 17.308 110.369 16.66C110.105 16.012 109.973 15.232 109.973 14.32C109.973 12.544 110.633 11.14 111.953 10.108C113.273 9.076 115.085 8.56 117.389 8.56C118.541 8.56 119.645 8.668 120.701 8.884C121.757 9.076 122.597 9.292 123.221 9.532L122.285 13.708C121.661 13.492 120.977 13.3 120.233 13.132C119.513 12.964 118.697 12.88 117.785 12.88C116.105 12.88 115.265 13.348 115.265 14.284C115.265 14.5 115.301 14.692 115.373 14.86C115.445 15.028 115.589 15.196 115.805 15.364C116.021 15.508 116.309 15.676 116.669 15.868C117.053 16.036 117.533 16.228 118.109 16.444C119.285 16.876 120.257 17.308 121.025 17.74C121.793 18.148 122.393 18.604 122.825 19.108C123.281 19.588 123.593 20.128 123.761 20.728C123.953 21.328 124.049 22.024 124.049 22.816C124.049 24.688 123.341 26.104 121.925 27.064C120.533 28.024 118.553 28.504 115.985 28.504C114.305 28.504 112.901 28.36 111.773 28.072C110.669 27.784 109.901 27.544 109.469 27.352L110.369 22.996C111.281 23.356 112.217 23.644 113.177 23.86C114.137 24.052 115.085 24.148 116.021 24.148ZM145.229 18.496C145.229 19.984 145.013 21.352 144.581 22.6C144.149 23.824 143.525 24.88 142.709 25.768C141.893 26.632 140.909 27.304 139.757 27.784C138.629 28.264 137.357 28.504 135.941 28.504C134.549 28.504 133.277 28.264 132.125 27.784C130.997 27.304 130.025 26.632 129.209 25.768C128.393 24.88 127.757 23.824 127.301 22.6C126.845 21.352 126.617 19.984 126.617 18.496C126.617 17.008 126.845 15.652 127.301 14.428C127.781 13.204 128.429 12.16 129.245 11.296C130.085 10.432 131.069 9.76 132.197 9.28C133.349 8.8 134.597 8.56 135.941 8.56C137.309 8.56 138.557 8.8 139.685 9.28C140.837 9.76 141.821 10.432 142.637 11.296C143.453 12.16 144.089 13.204 144.545 14.428C145.001 15.652 145.229 17.008 145.229 18.496ZM139.757 18.496C139.757 16.84 139.421 15.544 138.749 14.608C138.101 13.648 137.165 13.168 135.941 13.168C134.717 13.168 133.769 13.648 133.097 14.608C132.425 15.544 132.089 16.84 132.089 18.496C132.089 20.152 132.425 21.472 133.097 22.456C133.769 23.416 134.717 23.896 135.941 23.896C137.165 23.896 138.101 23.416 138.749 22.456C139.421 21.472 139.757 20.152 139.757 18.496ZM148.845 9.712C149.757 9.448 150.933 9.208 152.373 8.992C153.813 8.752 155.325 8.632 156.909 8.632C158.517 8.632 159.849 8.848 160.905 9.28C161.985 9.688 162.837 10.276 163.461 11.044C164.085 11.812 164.529 12.724 164.793 13.78C165.057 14.836 165.189 16.012 165.189 17.308V28H159.825V17.956C159.825 16.228 159.597 15.004 159.141 14.284C158.685 13.564 157.833 13.204 156.585 13.204C156.201 13.204 155.793 13.228 155.361 13.276C154.929 13.3 154.545 13.336 154.209 13.384V28H148.845V9.712ZM167.884 14.824H178.324V19.684H167.884V14.824ZM187.174 23.428C187.438 23.452 187.738 23.476 188.074 23.5C188.434 23.5 188.854 23.5 189.334 23.5C192.142 23.5 194.218 22.792 195.562 21.376C196.93 19.96 197.614 18.004 197.614 15.508C197.614 12.892 196.966 10.912 195.67 9.568C194.374 8.224 192.322 7.552 189.514 7.552C189.13 7.552 188.734 7.564 188.326 7.588C187.918 7.588 187.534 7.612 187.174 7.66V23.428ZM203.41 15.508C203.41 17.668 203.074 19.552 202.402 21.16C201.73 22.768 200.77 24.1 199.522 25.156C198.298 26.212 196.798 27.004 195.022 27.532C193.246 28.06 191.254 28.324 189.046 28.324C188.038 28.324 186.862 28.276 185.518 28.18C184.174 28.108 182.854 27.94 181.558 27.676V3.376C182.854 3.136 184.198 2.98 185.59 2.908C187.006 2.812 188.218 2.764 189.226 2.764C191.362 2.764 193.294 3.004 195.022 3.484C196.774 3.964 198.274 4.72 199.522 5.752C200.77 6.784 201.73 8.104 202.402 9.712C203.074 11.32 203.41 13.252 203.41 15.508ZM206.301 18.676C206.301 16.996 206.553 15.532 207.057 14.284C207.585 13.012 208.269 11.956 209.109 11.116C209.949 10.276 210.909 9.64 211.989 9.208C213.093 8.776 214.221 8.56 215.373 8.56C218.061 8.56 220.185 9.388 221.745 11.044C223.305 12.676 224.085 15.088 224.085 18.28C224.085 18.592 224.073 18.94 224.049 19.324C224.025 19.684 224.001 20.008 223.977 20.296H211.809C211.929 21.4 212.445 22.276 213.357 22.924C214.269 23.572 215.493 23.896 217.029 23.896C218.013 23.896 218.973 23.812 219.909 23.644C220.869 23.452 221.649 23.224 222.249 22.96L222.969 27.316C222.681 27.46 222.297 27.604 221.817 27.748C221.337 27.892 220.797 28.012 220.197 28.108C219.621 28.228 218.997 28.324 218.325 28.396C217.653 28.468 216.981 28.504 216.309 28.504C214.605 28.504 213.117 28.252 211.845 27.748C210.597 27.244 209.553 26.56 208.713 25.696C207.897 24.808 207.285 23.764 206.877 22.564C206.493 21.364 206.301 20.068 206.301 18.676ZM218.901 16.624C218.877 16.168 218.793 15.724 218.649 15.292C218.529 14.86 218.325 14.476 218.037 14.14C217.773 13.804 217.425 13.528 216.993 13.312C216.585 13.096 216.069 12.988 215.445 12.988C214.845 12.988 214.329 13.096 213.897 13.312C213.465 13.504 213.105 13.768 212.817 14.104C212.529 14.44 212.301 14.836 212.133 15.292C211.989 15.724 211.881 16.168 211.809 16.624H218.901ZM232.833 28C231.609 25.6 230.361 22.792 229.089 19.576C227.841 16.36 226.653 12.856 225.525 9.064H231.213C231.453 10 231.729 11.02 232.041 12.124C232.377 13.204 232.713 14.308 233.049 15.436C233.409 16.54 233.757 17.62 234.093 18.676C234.453 19.732 234.801 20.692 235.137 21.556C235.449 20.692 235.785 19.732 236.145 18.676C236.505 17.62 236.853 16.54 237.189 15.436C237.549 14.308 237.885 13.204 238.197 12.124C238.533 11.02 238.821 10 239.061 9.064H244.605C243.477 12.856 242.277 16.36 241.005 19.576C239.757 22.792 238.521 25.6 237.297 28H232.833ZM245.545 18.676C245.545 16.996 245.797 15.532 246.301 14.284C246.829 13.012 247.513 11.956 248.353 11.116C249.193 10.276 250.153 9.64 251.233 9.208C252.337 8.776 253.465 8.56 254.617 8.56C257.305 8.56 259.429 9.388 260.989 11.044C262.549 12.676 263.329 15.088 263.329 18.28C263.329 18.592 263.317 18.94 263.293 19.324C263.269 19.684 263.245 20.008 263.221 20.296H251.053C251.173 21.4 251.689 22.276 252.601 22.924C253.513 23.572 254.737 23.896 256.273 23.896C257.257 23.896 258.217 23.812 259.153 23.644C260.113 23.452 260.893 23.224 261.493 22.96L262.213 27.316C261.925 27.46 261.541 27.604 261.061 27.748C260.581 27.892 260.041 28.012 259.441 28.108C258.865 28.228 258.241 28.324 257.569 28.396C256.897 28.468 256.225 28.504 255.553 28.504C253.849 28.504 252.361 28.252 251.089 27.748C249.841 27.244 248.797 26.56 247.957 25.696C247.141 24.808 246.529 23.764 246.121 22.564C245.737 21.364 245.545 20.068 245.545 18.676ZM258.145 16.624C258.121 16.168 258.037 15.724 257.893 15.292C257.773 14.86 257.569 14.476 257.281 14.14C257.017 13.804 256.669 13.528 256.237 13.312C255.829 13.096 255.313 12.988 254.689 12.988C254.089 12.988 253.573 13.096 253.141 13.312C252.709 13.504 252.349 13.768 252.061 14.104C251.773 14.44 251.545 14.836 251.377 15.292C251.233 15.724 251.125 16.168 251.053 16.624H258.145ZM274.489 28.36C272.929 28.336 271.657 28.168 270.673 27.856C269.713 27.544 268.945 27.112 268.369 26.56C267.817 25.984 267.433 25.3 267.217 24.508C267.025 23.692 266.929 22.78 266.929 21.772V0.927999L272.293 0.0639992V20.692C272.293 21.172 272.329 21.604 272.401 21.988C272.473 22.372 272.605 22.696 272.797 22.96C273.013 23.224 273.313 23.44 273.697 23.608C274.081 23.776 274.597 23.884 275.245 23.932L274.489 28.36ZM295.491 18.496C295.491 19.984 295.275 21.352 294.843 22.6C294.411 23.824 293.787 24.88 292.971 25.768C292.155 26.632 291.171 27.304 290.019 27.784C288.891 28.264 287.619 28.504 286.203 28.504C284.811 28.504 283.539 28.264 282.387 27.784C281.259 27.304 280.287 26.632 279.471 25.768C278.655 24.88 278.019 23.824 277.563 22.6C277.107 21.352 276.879 19.984 276.879 18.496C276.879 17.008 277.107 15.652 277.563 14.428C278.043 13.204 278.691 12.16 279.507 11.296C280.347 10.432 281.331 9.76 282.459 9.28C283.611 8.8 284.859 8.56 286.203 8.56C287.571 8.56 288.819 8.8 289.947 9.28C291.099 9.76 292.083 10.432 292.899 11.296C293.715 12.16 294.351 13.204 294.807 14.428C295.263 15.652 295.491 17.008 295.491 18.496ZM290.019 18.496C290.019 16.84 289.683 15.544 289.011 14.608C288.363 13.648 287.427 13.168 286.203 13.168C284.979 13.168 284.031 13.648 283.359 14.608C282.687 15.544 282.351 16.84 282.351 18.496C282.351 20.152 282.687 21.472 283.359 22.456C284.031 23.416 284.979 23.896 286.203 23.896C287.427 23.896 288.363 23.416 289.011 22.456C289.683 21.472 290.019 20.152 290.019 18.496ZM311.239 18.676C311.239 17.02 310.867 15.7 310.123 14.716C309.379 13.708 308.275 13.204 306.811 13.204C306.331 13.204 305.887 13.228 305.479 13.276C305.071 13.3 304.735 13.336 304.471 13.384V23.068C304.807 23.284 305.239 23.464 305.767 23.608C306.319 23.752 306.871 23.824 307.423 23.824C309.967 23.824 311.239 22.108 311.239 18.676ZM316.711 18.532C316.711 19.996 316.531 21.328 316.171 22.528C315.811 23.728 315.283 24.76 314.587 25.624C313.891 26.488 313.027 27.16 311.995 27.64C310.963 28.12 309.775 28.36 308.431 28.36C307.687 28.36 306.991 28.288 306.343 28.144C305.695 28 305.071 27.796 304.471 27.532V34.66H299.107V9.712C299.587 9.568 300.139 9.436 300.763 9.316C301.387 9.172 302.035 9.052 302.707 8.956C303.403 8.86 304.099 8.788 304.795 8.74C305.515 8.668 306.199 8.632 306.847 8.632C308.407 8.632 309.799 8.872 311.023 9.352C312.247 9.808 313.279 10.468 314.119 11.332C314.959 12.172 315.595 13.204 316.027 14.428C316.483 15.652 316.711 17.02 316.711 18.532ZM319.393 18.676C319.393 16.996 319.645 15.532 320.149 14.284C320.677 13.012 321.361 11.956 322.201 11.116C323.041 10.276 324.001 9.64 325.081 9.208C326.185 8.776 327.313 8.56 328.465 8.56C331.153 8.56 333.277 9.388 334.837 11.044C336.397 12.676 337.177 15.088 337.177 18.28C337.177 18.592 337.165 18.94 337.141 19.324C337.117 19.684 337.093 20.008 337.069 20.296H324.901C325.021 21.4 325.537 22.276 326.449 22.924C327.361 23.572 328.585 23.896 330.121 23.896C331.105 23.896 332.065 23.812 333.001 23.644C333.961 23.452 334.741 23.224 335.341 22.96L336.061 27.316C335.773 27.46 335.389 27.604 334.909 27.748C334.429 27.892 333.889 28.012 333.289 28.108C332.713 28.228 332.089 28.324 331.417 28.396C330.745 28.468 330.073 28.504 329.401 28.504C327.697 28.504 326.209 28.252 324.937 27.748C323.689 27.244 322.645 26.56 321.805 25.696C320.989 24.808 320.377 23.764 319.969 22.564C319.585 21.364 319.393 20.068 319.393 18.676ZM331.993 16.624C331.969 16.168 331.885 15.724 331.741 15.292C331.621 14.86 331.417 14.476 331.129 14.14C330.865 13.804 330.517 13.528 330.085 13.312C329.677 13.096 329.161 12.988 328.537 12.988C327.937 12.988 327.421 13.096 326.989 13.312C326.557 13.504 326.197 13.768 325.909 14.104C325.621 14.44 325.393 14.836 325.225 15.292C325.081 15.724 324.973 16.168 324.901 16.624H331.993ZM352.189 13.816C351.709 13.696 351.145 13.576 350.497 13.456C349.849 13.312 349.153 13.24 348.409 13.24C348.073 13.24 347.665 13.276 347.185 13.348C346.729 13.396 346.381 13.456 346.141 13.528V28H340.777V10.072C341.737 9.736 342.865 9.424 344.161 9.136C345.481 8.824 346.945 8.668 348.553 8.668C348.841 8.668 349.189 8.692 349.597 8.74C350.005 8.764 350.413 8.812 350.821 8.884C351.229 8.932 351.637 9.004 352.045 9.1C352.453 9.172 352.801 9.268 353.089 9.388L352.189 13.816Z" fill="black"/>
</svg>
