<svg width="177" height="18" viewBox="0 0 177 18" fill="none" xmlns="http://www.w3.org/2000/svg">
<path d="M9.792 14C9.66 13.568 9.51 13.124 9.342 12.668C9.186 12.212 9.03 11.756 8.874 11.3H4.014C3.858 11.756 3.696 12.212 3.528 12.668C3.372 13.124 3.228 13.568 3.096 14H0.18C0.648 12.656 1.092 11.414 1.512 10.274C1.932 9.134 2.34 8.06 2.736 7.052C3.144 6.044 3.54 5.09 3.924 4.19C4.32 3.278 4.728 2.39 5.148 1.526H7.83C8.238 2.39 8.64 3.278 9.036 4.19C9.432 5.09 9.828 6.044 10.224 7.052C10.632 8.06 11.046 9.134 11.466 10.274C11.886 11.414 12.33 12.656 12.798 14H9.792ZM6.426 4.352C6.366 4.532 6.276 4.778 6.156 5.09C6.036 5.402 5.898 5.762 5.742 6.17C5.586 6.578 5.412 7.028 5.22 7.52C5.04 8.012 4.854 8.528 4.662 9.068H8.208C8.016 8.528 7.83 8.012 7.65 7.52C7.47 7.028 7.296 6.578 7.128 6.17C6.972 5.762 6.834 5.402 6.714 5.09C6.594 4.778 6.498 4.532 6.426 4.352ZM16.0553 9.194C16.0553 10.022 16.2413 10.688 16.6133 11.192C16.9853 11.696 17.5373 11.948 18.2693 11.948C18.5093 11.948 18.7313 11.942 18.9353 11.93C19.1393 11.906 19.3073 11.882 19.4393 11.858V6.98C19.2713 6.872 19.0493 6.782 18.7733 6.71C18.5093 6.638 18.2393 6.602 17.9633 6.602C16.6913 6.602 16.0553 7.466 16.0553 9.194ZM22.1213 13.694C21.8813 13.766 21.6053 13.838 21.2933 13.91C20.9813 13.97 20.6513 14.024 20.3033 14.072C19.9673 14.12 19.6193 14.156 19.2593 14.18C18.9113 14.216 18.5753 14.234 18.2513 14.234C17.4713 14.234 16.7753 14.12 16.1633 13.892C15.5513 13.664 15.0353 13.34 14.6153 12.92C14.1953 12.488 13.8713 11.972 13.6433 11.372C13.4273 10.76 13.3193 10.076 13.3193 9.32C13.3193 8.552 13.4153 7.862 13.6073 7.25C13.7993 6.626 14.0753 6.098 14.4353 5.666C14.7953 5.234 15.2333 4.904 15.7493 4.676C16.2773 4.448 16.8773 4.334 17.5493 4.334C17.9213 4.334 18.2513 4.37 18.5393 4.442C18.8393 4.514 19.1393 4.616 19.4393 4.748V0.463999L22.1213 0.0319996V13.694ZM23.9126 9.338C23.9126 8.498 24.0386 7.766 24.2906 7.142C24.5546 6.506 24.8966 5.978 25.3166 5.558C25.7366 5.138 26.2166 4.82 26.7566 4.604C27.3086 4.388 27.8726 4.28 28.4486 4.28C29.7926 4.28 30.8546 4.694 31.6346 5.522C32.4146 6.338 32.8046 7.544 32.8046 9.14C32.8046 9.296 32.7986 9.47 32.7866 9.662C32.7746 9.842 32.7626 10.004 32.7506 10.148H26.6666C26.7266 10.7 26.9846 11.138 27.4406 11.462C27.8966 11.786 28.5086 11.948 29.2766 11.948C29.7686 11.948 30.2486 11.906 30.7166 11.822C31.1966 11.726 31.5866 11.612 31.8866 11.48L32.2466 13.658C32.1026 13.73 31.9106 13.802 31.6706 13.874C31.4306 13.946 31.1606 14.006 30.8606 14.054C30.5726 14.114 30.2606 14.162 29.9246 14.198C29.5886 14.234 29.2526 14.252 28.9166 14.252C28.0646 14.252 27.3206 14.126 26.6846 13.874C26.0606 13.622 25.5386 13.28 25.1186 12.848C24.7106 12.404 24.4046 11.882 24.2006 11.282C24.0086 10.682 23.9126 10.034 23.9126 9.338ZM30.2126 8.312C30.2006 8.084 30.1586 7.862 30.0866 7.646C30.0266 7.43 29.9246 7.238 29.7806 7.07C29.6486 6.902 29.4746 6.764 29.2586 6.656C29.0546 6.548 28.7966 6.494 28.4846 6.494C28.1846 6.494 27.9266 6.548 27.7106 6.656C27.4946 6.752 27.3146 6.884 27.1706 7.052C27.0266 7.22 26.9126 7.418 26.8286 7.646C26.7566 7.862 26.7026 8.084 26.6666 8.312H30.2126ZM34.6043 4.856C35.0603 4.724 35.6483 4.604 36.3683 4.496C37.0883 4.376 37.8443 4.316 38.6363 4.316C39.4403 4.316 40.1063 4.424 40.6343 4.64C41.1743 4.844 41.6003 5.138 41.9123 5.522C42.2243 5.906 42.4463 6.362 42.5783 6.89C42.7103 7.418 42.7763 8.006 42.7763 8.654V14H40.0943V8.978C40.0943 8.114 39.9803 7.502 39.7523 7.142C39.5243 6.782 39.0983 6.602 38.4743 6.602C38.2823 6.602 38.0783 6.614 37.8623 6.638C37.6463 6.65 37.4543 6.668 37.2863 6.692V14H34.6043V4.856ZM47.6159 14H44.9339V4.532H47.6159V14ZM47.8679 1.796C47.8679 2.288 47.7059 2.678 47.3819 2.966C47.0699 3.242 46.6979 3.38 46.2659 3.38C45.8339 3.38 45.4559 3.242 45.1319 2.966C44.8199 2.678 44.6639 2.288 44.6639 1.796C44.6639 1.304 44.8199 0.919999 45.1319 0.643999C45.4559 0.355999 45.8339 0.211999 46.2659 0.211999C46.6979 0.211999 47.0699 0.355999 47.3819 0.643999C47.7059 0.919999 47.8679 1.304 47.8679 1.796ZM53.647 14.18C52.867 14.168 52.231 14.084 51.739 13.928C51.259 13.772 50.875 13.556 50.587 13.28C50.311 12.992 50.119 12.65 50.011 12.254C49.915 11.846 49.867 11.39 49.867 10.886V0.463999L52.549 0.0319996V10.346C52.549 10.586 52.567 10.802 52.603 10.994C52.639 11.186 52.705 11.348 52.801 11.48C52.909 11.612 53.059 11.72 53.251 11.804C53.443 11.888 53.701 11.942 54.025 11.966L53.647 14.18ZM58.0103 12.074C58.5023 12.074 58.8503 12.026 59.0543 11.93C59.2583 11.834 59.3603 11.648 59.3603 11.372C59.3603 11.156 59.2283 10.97 58.9643 10.814C58.7003 10.646 58.2983 10.46 57.7583 10.256C57.3383 10.1 56.9543 9.938 56.6063 9.77C56.2703 9.602 55.9823 9.404 55.7423 9.176C55.5023 8.936 55.3163 8.654 55.1843 8.33C55.0523 8.006 54.9863 7.616 54.9863 7.16C54.9863 6.272 55.3163 5.57 55.9763 5.054C56.6363 4.538 57.5423 4.28 58.6943 4.28C59.2703 4.28 59.8223 4.334 60.3503 4.442C60.8783 4.538 61.2983 4.646 61.6103 4.766L61.1423 6.854C60.8303 6.746 60.4883 6.65 60.1163 6.566C59.7563 6.482 59.3483 6.44 58.8923 6.44C58.0523 6.44 57.6323 6.674 57.6323 7.142C57.6323 7.25 57.6503 7.346 57.6863 7.43C57.7223 7.514 57.7943 7.598 57.9023 7.682C58.0103 7.754 58.1543 7.838 58.3343 7.934C58.5263 8.018 58.7663 8.114 59.0543 8.222C59.6423 8.438 60.1283 8.654 60.5123 8.87C60.8963 9.074 61.1963 9.302 61.4123 9.554C61.6403 9.794 61.7963 10.064 61.8803 10.364C61.9763 10.664 62.0243 11.012 62.0243 11.408C62.0243 12.344 61.6703 13.052 60.9623 13.532C60.2663 14.012 59.2763 14.252 57.9923 14.252C57.1523 14.252 56.4503 14.18 55.8863 14.036C55.3343 13.892 54.9503 13.772 54.7343 13.676L55.1843 11.498C55.6403 11.678 56.1083 11.822 56.5883 11.93C57.0683 12.026 57.5423 12.074 58.0103 12.074ZM72.6147 9.248C72.6147 9.992 72.5067 10.676 72.2907 11.3C72.0747 11.912 71.7627 12.44 71.3547 12.884C70.9467 13.316 70.4547 13.652 69.8787 13.892C69.3147 14.132 68.6787 14.252 67.9707 14.252C67.2747 14.252 66.6387 14.132 66.0627 13.892C65.4987 13.652 65.0127 13.316 64.6047 12.884C64.1967 12.44 63.8787 11.912 63.6507 11.3C63.4227 10.676 63.3087 9.992 63.3087 9.248C63.3087 8.504 63.4227 7.826 63.6507 7.214C63.8907 6.602 64.2147 6.08 64.6227 5.648C65.0427 5.216 65.5347 4.88 66.0987 4.64C66.6747 4.4 67.2987 4.28 67.9707 4.28C68.6547 4.28 69.2787 4.4 69.8427 4.64C70.4187 4.88 70.9107 5.216 71.3187 5.648C71.7267 6.08 72.0447 6.602 72.2727 7.214C72.5007 7.826 72.6147 8.504 72.6147 9.248ZM69.8787 9.248C69.8787 8.42 69.7107 7.772 69.3747 7.304C69.0507 6.824 68.5827 6.584 67.9707 6.584C67.3587 6.584 66.8847 6.824 66.5487 7.304C66.2127 7.772 66.0447 8.42 66.0447 9.248C66.0447 10.076 66.2127 10.736 66.5487 11.228C66.8847 11.708 67.3587 11.948 67.9707 11.948C68.5827 11.948 69.0507 11.708 69.3747 11.228C69.7107 10.736 69.8787 10.076 69.8787 9.248ZM74.4223 4.856C74.8783 4.724 75.4663 4.604 76.1863 4.496C76.9063 4.376 77.6623 4.316 78.4543 4.316C79.2583 4.316 79.9243 4.424 80.4523 4.64C80.9923 4.844 81.4183 5.138 81.7303 5.522C82.0423 5.906 82.2643 6.362 82.3963 6.89C82.5283 7.418 82.5943 8.006 82.5943 8.654V14H79.9123V8.978C79.9123 8.114 79.7983 7.502 79.5703 7.142C79.3423 6.782 78.9163 6.602 78.2923 6.602C78.1003 6.602 77.8963 6.614 77.6803 6.638C77.4643 6.65 77.2723 6.668 77.1043 6.692V14H74.4223V4.856ZM83.9419 7.412H89.1619V9.842H83.9419V7.412ZM93.5871 11.714C93.7191 11.726 93.8691 11.738 94.0371 11.75C94.2171 11.75 94.4271 11.75 94.6671 11.75C96.0711 11.75 97.1091 11.396 97.7811 10.688C98.4651 9.98 98.8071 9.002 98.8071 7.754C98.8071 6.446 98.4831 5.456 97.8351 4.784C97.1871 4.112 96.1611 3.776 94.7571 3.776C94.5651 3.776 94.3671 3.782 94.1631 3.794C93.9591 3.794 93.7671 3.806 93.5871 3.83V11.714ZM101.705 7.754C101.705 8.834 101.537 9.776 101.201 10.58C100.865 11.384 100.385 12.05 99.7611 12.578C99.1491 13.106 98.3991 13.502 97.5111 13.766C96.6231 14.03 95.6271 14.162 94.5231 14.162C94.0191 14.162 93.4311 14.138 92.7591 14.09C92.0871 14.054 91.4271 13.97 90.7791 13.838V1.688C91.4271 1.568 92.0991 1.49 92.7951 1.454C93.5031 1.406 94.1091 1.382 94.6131 1.382C95.6811 1.382 96.6471 1.502 97.5111 1.742C98.3871 1.982 99.1371 2.36 99.7611 2.876C100.385 3.392 100.865 4.052 101.201 4.856C101.537 5.66 101.705 6.626 101.705 7.754ZM103.151 9.338C103.151 8.498 103.277 7.766 103.529 7.142C103.793 6.506 104.135 5.978 104.555 5.558C104.975 5.138 105.455 4.82 105.995 4.604C106.547 4.388 107.111 4.28 107.687 4.28C109.031 4.28 110.093 4.694 110.873 5.522C111.653 6.338 112.043 7.544 112.043 9.14C112.043 9.296 112.037 9.47 112.025 9.662C112.013 9.842 112.001 10.004 111.989 10.148H105.905C105.965 10.7 106.223 11.138 106.679 11.462C107.135 11.786 107.747 11.948 108.515 11.948C109.007 11.948 109.487 11.906 109.955 11.822C110.435 11.726 110.825 11.612 111.125 11.48L111.485 13.658C111.341 13.73 111.149 13.802 110.909 13.874C110.669 13.946 110.399 14.006 110.099 14.054C109.811 14.114 109.499 14.162 109.163 14.198C108.827 14.234 108.491 14.252 108.155 14.252C107.303 14.252 106.559 14.126 105.923 13.874C105.299 13.622 104.777 13.28 104.357 12.848C103.949 12.404 103.643 11.882 103.439 11.282C103.247 10.682 103.151 10.034 103.151 9.338ZM109.451 8.312C109.439 8.084 109.397 7.862 109.325 7.646C109.265 7.43 109.163 7.238 109.019 7.07C108.887 6.902 108.713 6.764 108.497 6.656C108.293 6.548 108.035 6.494 107.723 6.494C107.423 6.494 107.165 6.548 106.949 6.656C106.733 6.752 106.553 6.884 106.409 7.052C106.265 7.22 106.151 7.418 106.067 7.646C105.995 7.862 105.941 8.084 105.905 8.312H109.451ZM116.416 14C115.804 12.8 115.18 11.396 114.544 9.788C113.92 8.18 113.326 6.428 112.762 4.532H115.606C115.726 5 115.864 5.51 116.02 6.062C116.188 6.602 116.356 7.154 116.524 7.718C116.704 8.27 116.878 8.81 117.046 9.338C117.226 9.866 117.4 10.346 117.568 10.778C117.724 10.346 117.892 9.866 118.072 9.338C118.252 8.81 118.426 8.27 118.594 7.718C118.774 7.154 118.942 6.602 119.098 6.062C119.266 5.51 119.41 5 119.53 4.532H122.302C121.738 6.428 121.138 8.18 120.502 9.788C119.878 11.396 119.26 12.8 118.648 14H116.416ZM122.773 9.338C122.773 8.498 122.899 7.766 123.151 7.142C123.415 6.506 123.757 5.978 124.177 5.558C124.597 5.138 125.077 4.82 125.617 4.604C126.169 4.388 126.733 4.28 127.309 4.28C128.653 4.28 129.715 4.694 130.495 5.522C131.275 6.338 131.665 7.544 131.665 9.14C131.665 9.296 131.659 9.47 131.647 9.662C131.635 9.842 131.623 10.004 131.611 10.148H125.527C125.587 10.7 125.845 11.138 126.301 11.462C126.757 11.786 127.369 11.948 128.137 11.948C128.629 11.948 129.109 11.906 129.577 11.822C130.057 11.726 130.447 11.612 130.747 11.48L131.107 13.658C130.963 13.73 130.771 13.802 130.531 13.874C130.291 13.946 130.021 14.006 129.721 14.054C129.433 14.114 129.121 14.162 128.785 14.198C128.449 14.234 128.113 14.252 127.777 14.252C126.925 14.252 126.181 14.126 125.545 13.874C124.921 13.622 124.399 13.28 123.979 12.848C123.571 12.404 123.265 11.882 123.061 11.282C122.869 10.682 122.773 10.034 122.773 9.338ZM129.073 8.312C129.061 8.084 129.019 7.862 128.947 7.646C128.887 7.43 128.785 7.238 128.641 7.07C128.509 6.902 128.335 6.764 128.119 6.656C127.915 6.548 127.657 6.494 127.345 6.494C127.045 6.494 126.787 6.548 126.571 6.656C126.355 6.752 126.175 6.884 126.031 7.052C125.887 7.22 125.773 7.418 125.689 7.646C125.617 7.862 125.563 8.084 125.527 8.312H129.073ZM137.244 14.18C136.464 14.168 135.828 14.084 135.336 13.928C134.856 13.772 134.472 13.556 134.184 13.28C133.908 12.992 133.716 12.65 133.608 12.254C133.512 11.846 133.464 11.39 133.464 10.886V0.463999L136.146 0.0319996V10.346C136.146 10.586 136.164 10.802 136.2 10.994C136.236 11.186 136.302 11.348 136.398 11.48C136.506 11.612 136.656 11.72 136.848 11.804C137.04 11.888 137.298 11.942 137.622 11.966L137.244 14.18ZM147.746 9.248C147.746 9.992 147.638 10.676 147.422 11.3C147.206 11.912 146.894 12.44 146.486 12.884C146.078 13.316 145.586 13.652 145.01 13.892C144.446 14.132 143.81 14.252 143.102 14.252C142.406 14.252 141.77 14.132 141.194 13.892C140.63 13.652 140.144 13.316 139.736 12.884C139.328 12.44 139.01 11.912 138.782 11.3C138.554 10.676 138.44 9.992 138.44 9.248C138.44 8.504 138.554 7.826 138.782 7.214C139.022 6.602 139.346 6.08 139.754 5.648C140.174 5.216 140.666 4.88 141.23 4.64C141.806 4.4 142.43 4.28 143.102 4.28C143.786 4.28 144.41 4.4 144.974 4.64C145.55 4.88 146.042 5.216 146.45 5.648C146.858 6.08 147.176 6.602 147.404 7.214C147.632 7.826 147.746 8.504 147.746 9.248ZM145.01 9.248C145.01 8.42 144.842 7.772 144.506 7.304C144.182 6.824 143.714 6.584 143.102 6.584C142.49 6.584 142.016 6.824 141.68 7.304C141.344 7.772 141.176 8.42 141.176 9.248C141.176 10.076 141.344 10.736 141.68 11.228C142.016 11.708 142.49 11.948 143.102 11.948C143.714 11.948 144.182 11.708 144.506 11.228C144.842 10.736 145.01 10.076 145.01 9.248ZM155.619 9.338C155.619 8.51 155.433 7.85 155.061 7.358C154.689 6.854 154.137 6.602 153.405 6.602C153.165 6.602 152.943 6.614 152.739 6.638C152.535 6.65 152.367 6.668 152.235 6.692V11.534C152.403 11.642 152.619 11.732 152.883 11.804C153.159 11.876 153.435 11.912 153.711 11.912C154.983 11.912 155.619 11.054 155.619 9.338ZM158.355 9.266C158.355 9.998 158.265 10.664 158.085 11.264C157.905 11.864 157.641 12.38 157.293 12.812C156.945 13.244 156.513 13.58 155.997 13.82C155.481 14.06 154.887 14.18 154.215 14.18C153.843 14.18 153.495 14.144 153.171 14.072C152.847 14 152.535 13.898 152.235 13.766V17.33H149.553V4.856C149.793 4.784 150.069 4.718 150.381 4.658C150.693 4.586 151.017 4.526 151.353 4.478C151.701 4.43 152.049 4.394 152.397 4.37C152.757 4.334 153.099 4.316 153.423 4.316C154.203 4.316 154.899 4.436 155.511 4.676C156.123 4.904 156.639 5.234 157.059 5.666C157.479 6.086 157.797 6.602 158.013 7.214C158.241 7.826 158.355 8.51 158.355 9.266ZM159.697 9.338C159.697 8.498 159.823 7.766 160.075 7.142C160.339 6.506 160.681 5.978 161.101 5.558C161.521 5.138 162.001 4.82 162.541 4.604C163.093 4.388 163.657 4.28 164.233 4.28C165.577 4.28 166.639 4.694 167.419 5.522C168.199 6.338 168.589 7.544 168.589 9.14C168.589 9.296 168.583 9.47 168.571 9.662C168.559 9.842 168.547 10.004 168.535 10.148H162.451C162.511 10.7 162.769 11.138 163.225 11.462C163.681 11.786 164.293 11.948 165.061 11.948C165.553 11.948 166.033 11.906 166.501 11.822C166.981 11.726 167.371 11.612 167.671 11.48L168.031 13.658C167.887 13.73 167.695 13.802 167.455 13.874C167.215 13.946 166.945 14.006 166.645 14.054C166.357 14.114 166.045 14.162 165.709 14.198C165.373 14.234 165.037 14.252 164.701 14.252C163.849 14.252 163.105 14.126 162.469 13.874C161.845 13.622 161.323 13.28 160.903 12.848C160.495 12.404 160.189 11.882 159.985 11.282C159.793 10.682 159.697 10.034 159.697 9.338ZM165.997 8.312C165.985 8.084 165.943 7.862 165.871 7.646C165.811 7.43 165.709 7.238 165.565 7.07C165.433 6.902 165.259 6.764 165.043 6.656C164.839 6.548 164.581 6.494 164.269 6.494C163.969 6.494 163.711 6.548 163.495 6.656C163.279 6.752 163.099 6.884 162.955 7.052C162.811 7.22 162.697 7.418 162.613 7.646C162.541 7.862 162.487 8.084 162.451 8.312H165.997ZM176.094 6.908C175.854 6.848 175.572 6.788 175.248 6.728C174.924 6.656 174.576 6.62 174.204 6.62C174.036 6.62 173.832 6.638 173.592 6.674C173.364 6.698 173.19 6.728 173.07 6.764V14H170.388V5.036C170.868 4.868 171.432 4.712 172.08 4.568C172.74 4.412 173.472 4.334 174.276 4.334C174.42 4.334 174.594 4.346 174.798 4.37C175.002 4.382 175.206 4.406 175.41 4.442C175.614 4.466 175.818 4.502 176.022 4.55C176.226 4.586 176.4 4.634 176.544 4.694L176.094 6.908Z" fill="black"/>
</svg>
